<mxfile host="app.diagrams.net" modified="2024-05-11T18:51:23.901Z" agent="Mozilla/5.0 (Windows NT 10.0; Win64; x64; rv:125.0) Gecko/20100101 Firefox/125.0" etag="vXclap1JN4J8Gm6wm9ZD" version="24.2.8" type="device">
  <diagram name="Page-1" id="QFKcMASUdpn1xXOczA2w">
    <mxGraphModel dx="2876" dy="1106" grid="1" gridSize="10" guides="1" tooltips="1" connect="1" arrows="1" fold="1" page="1" pageScale="1" pageWidth="827" pageHeight="1169" math="0" shadow="0">
      <root>
        <mxCell id="0" />
        <mxCell id="1" parent="0" />
        <mxCell id="vxMmgjFSvx9ipGvhzOYv-60" value="" style="rounded=0;whiteSpace=wrap;html=1;strokeColor=#ffffff;" vertex="1" parent="1">
          <mxGeometry x="-20" y="130" width="800" height="630" as="geometry" />
        </mxCell>
        <mxCell id="vxMmgjFSvx9ipGvhzOYv-21" value="" style="rounded=0;whiteSpace=wrap;html=1;dashed=1;dashPattern=8 8;fontFamily=Helvetica;" vertex="1" parent="1">
          <mxGeometry x="413" y="160" width="350" height="420" as="geometry" />
        </mxCell>
        <mxCell id="vxMmgjFSvx9ipGvhzOYv-19" value="" style="rounded=0;whiteSpace=wrap;html=1;dashed=1;dashPattern=8 8;fontFamily=Helvetica;" vertex="1" parent="1">
          <mxGeometry y="160" width="350" height="420" as="geometry" />
        </mxCell>
        <mxCell id="vxMmgjFSvx9ipGvhzOYv-17" value="" style="group;fontFamily=Helvetica;" vertex="1" connectable="0" parent="1">
          <mxGeometry x="430" y="180" width="170" height="220" as="geometry" />
        </mxCell>
        <mxCell id="vxMmgjFSvx9ipGvhzOYv-15" value="&amp;nbsp; &lt;b&gt;nRF7002 dev. kit&lt;br&gt;&lt;/b&gt;&lt;div&gt;&lt;b&gt;&lt;br&gt;&lt;/b&gt;&lt;/div&gt;&lt;div&gt;&lt;b&gt;&lt;br&gt;&lt;/b&gt;&lt;/div&gt;&lt;div&gt;&lt;b&gt;&lt;br&gt;&lt;/b&gt;&lt;/div&gt;&lt;div&gt;&lt;b&gt;&lt;br&gt;&lt;/b&gt;&lt;/div&gt;&lt;div&gt;&lt;b&gt;&lt;br&gt;&lt;/b&gt;&lt;/div&gt;&lt;div&gt;&lt;b&gt;&lt;br&gt;&lt;/b&gt;&lt;/div&gt;&lt;div&gt;&lt;b&gt;&lt;br&gt;&lt;/b&gt;&lt;/div&gt;&lt;div&gt;&lt;b&gt;&lt;br&gt;&lt;/b&gt;&lt;/div&gt;&lt;div&gt;&lt;b&gt;&lt;br&gt;&lt;/b&gt;&lt;/div&gt;&lt;div&gt;&lt;b&gt;&lt;br&gt;&lt;/b&gt;&lt;/div&gt;&lt;div&gt;&lt;b&gt;&lt;br&gt;&lt;/b&gt;&lt;/div&gt;&lt;div&gt;&lt;b&gt;&lt;br&gt;&lt;/b&gt;&lt;/div&gt;&lt;div&gt;&lt;b&gt;&lt;br&gt;&lt;/b&gt;&lt;/div&gt;&lt;div&gt;&lt;b&gt;&lt;br&gt;&lt;/b&gt;&lt;/div&gt;" style="rounded=0;whiteSpace=wrap;html=1;dashed=1;dashPattern=1 4;align=left;fontFamily=Helvetica;" vertex="1" parent="vxMmgjFSvx9ipGvhzOYv-17">
          <mxGeometry width="170" height="220" as="geometry" />
        </mxCell>
        <mxCell id="vxMmgjFSvx9ipGvhzOYv-2" value="&lt;div align=&quot;center&quot; style=&quot;line-height: 100%;&quot;&gt;&lt;b&gt;Wi-Fi Module&lt;/b&gt;&lt;/div&gt;&lt;div align=&quot;center&quot; style=&quot;line-height: 100%;&quot;&gt;&lt;b&gt;&lt;br&gt;&lt;/b&gt;&lt;/div&gt;&lt;div align=&quot;center&quot; style=&quot;line-height: 100%;&quot;&gt;&lt;b&gt;nRF7002&lt;/b&gt;&lt;/div&gt;" style="rounded=1;whiteSpace=wrap;html=1;align=center;arcSize=21;fillColor=#fff2cc;strokeColor=#d6b656;fontFamily=Helvetica;" vertex="1" parent="vxMmgjFSvx9ipGvhzOYv-17">
          <mxGeometry x="32.5" y="27" width="105" height="60" as="geometry" />
        </mxCell>
        <mxCell id="vxMmgjFSvx9ipGvhzOYv-3" value="Transmitter Controller&lt;br style=&quot;font-size: 12px;&quot;&gt;&lt;div style=&quot;line-height: 100%; font-size: 12px;&quot; align=&quot;center&quot;&gt;&lt;br style=&quot;font-size: 12px;&quot;&gt;&lt;/div&gt;&lt;div style=&quot;line-height: 100%; font-size: 12px;&quot; align=&quot;center&quot;&gt;nRF5340&lt;/div&gt;" style="rounded=1;whiteSpace=wrap;html=1;align=center;arcSize=21;fillColor=#fff2cc;strokeColor=#d6b656;fontSize=12;fontStyle=1;fontFamily=Helvetica;" vertex="1" parent="vxMmgjFSvx9ipGvhzOYv-17">
          <mxGeometry x="16.25" y="130" width="137.5" height="70" as="geometry" />
        </mxCell>
        <mxCell id="vxMmgjFSvx9ipGvhzOYv-7" value="" style="endArrow=classic;startArrow=classic;html=1;rounded=0;entryX=0.5;entryY=1;entryDx=0;entryDy=0;exitX=0.5;exitY=0;exitDx=0;exitDy=0;fontFamily=Helvetica;" edge="1" parent="vxMmgjFSvx9ipGvhzOYv-17" source="vxMmgjFSvx9ipGvhzOYv-3" target="vxMmgjFSvx9ipGvhzOYv-2">
          <mxGeometry width="50" height="50" relative="1" as="geometry">
            <mxPoint x="-30" y="197" as="sourcePoint" />
            <mxPoint x="20" y="147" as="targetPoint" />
          </mxGeometry>
        </mxCell>
        <mxCell id="vxMmgjFSvx9ipGvhzOYv-8" value="&lt;div style=&quot;font-size: 12px;&quot;&gt;QSPI&lt;/div&gt;" style="edgeLabel;html=1;align=center;verticalAlign=middle;resizable=0;points=[];fontSize=12;fontFamily=Helvetica;" vertex="1" connectable="0" parent="vxMmgjFSvx9ipGvhzOYv-7">
          <mxGeometry x="-0.0556" relative="1" as="geometry">
            <mxPoint x="15" as="offset" />
          </mxGeometry>
        </mxCell>
        <mxCell id="vxMmgjFSvx9ipGvhzOYv-20" value="" style="group;fontFamily=Helvetica;" vertex="1" connectable="0" parent="1">
          <mxGeometry x="160" y="180" width="170" height="220" as="geometry" />
        </mxCell>
        <mxCell id="vxMmgjFSvx9ipGvhzOYv-10" value="&amp;nbsp; &lt;b&gt;nRF5340 dev. kit&lt;br&gt;&lt;/b&gt;&lt;div&gt;&lt;b&gt;&lt;br&gt;&lt;/b&gt;&lt;/div&gt;&lt;div&gt;&lt;b&gt;&lt;br&gt;&lt;/b&gt;&lt;/div&gt;&lt;div&gt;&lt;b&gt;&lt;br&gt;&lt;/b&gt;&lt;/div&gt;&lt;div&gt;&lt;b&gt;&lt;br&gt;&lt;/b&gt;&lt;/div&gt;&lt;div&gt;&lt;b&gt;&lt;br&gt;&lt;/b&gt;&lt;/div&gt;&lt;div&gt;&lt;b&gt;&lt;br&gt;&lt;/b&gt;&lt;/div&gt;&lt;div&gt;&lt;b&gt;&lt;br&gt;&lt;/b&gt;&lt;/div&gt;&lt;div&gt;&lt;b&gt;&lt;br&gt;&lt;/b&gt;&lt;/div&gt;&lt;div&gt;&lt;b&gt;&lt;br&gt;&lt;/b&gt;&lt;/div&gt;&lt;div&gt;&lt;b&gt;&lt;br&gt;&lt;/b&gt;&lt;/div&gt;&lt;div&gt;&lt;b&gt;&lt;br&gt;&lt;/b&gt;&lt;/div&gt;&lt;div&gt;&lt;b&gt;&lt;br&gt;&lt;/b&gt;&lt;/div&gt;&lt;div&gt;&lt;b&gt;&lt;br&gt;&lt;/b&gt;&lt;/div&gt;&lt;div&gt;&lt;b&gt;&lt;br&gt;&lt;/b&gt;&lt;/div&gt;" style="rounded=0;whiteSpace=wrap;html=1;dashed=1;dashPattern=1 4;align=left;fontFamily=Helvetica;" vertex="1" parent="vxMmgjFSvx9ipGvhzOYv-20">
          <mxGeometry width="170" height="220" as="geometry" />
        </mxCell>
        <mxCell id="vxMmgjFSvx9ipGvhzOYv-12" value="Recorder Controller&lt;br style=&quot;font-size: 12px;&quot;&gt;&lt;div style=&quot;line-height: 100%; font-size: 12px;&quot; align=&quot;center&quot;&gt;&lt;br style=&quot;font-size: 12px;&quot;&gt;&lt;/div&gt;&lt;div style=&quot;line-height: 100%; font-size: 12px;&quot; align=&quot;center&quot;&gt;nRF5340&lt;/div&gt;" style="rounded=1;whiteSpace=wrap;html=1;align=center;arcSize=21;fillColor=#fff2cc;strokeColor=#d6b656;fontSize=12;fontStyle=1;fontFamily=Helvetica;" vertex="1" parent="vxMmgjFSvx9ipGvhzOYv-20">
          <mxGeometry x="16.25" y="78" width="137.5" height="70" as="geometry" />
        </mxCell>
        <mxCell id="vxMmgjFSvx9ipGvhzOYv-29" value="" style="edgeStyle=orthogonalEdgeStyle;rounded=0;orthogonalLoop=1;jettySize=auto;html=1;fontFamily=Helvetica;" edge="1" parent="1" source="vxMmgjFSvx9ipGvhzOYv-22" target="vxMmgjFSvx9ipGvhzOYv-12">
          <mxGeometry relative="1" as="geometry">
            <Array as="points">
              <mxPoint x="150" y="235" />
              <mxPoint x="150" y="280" />
            </Array>
          </mxGeometry>
        </mxCell>
        <mxCell id="vxMmgjFSvx9ipGvhzOYv-35" value="&lt;div style=&quot;font-size: 12px;&quot;&gt;SPI&lt;/div&gt;" style="edgeLabel;html=1;align=center;verticalAlign=middle;resizable=0;points=[];fontFamily=Helvetica;fontSize=12;" vertex="1" connectable="0" parent="vxMmgjFSvx9ipGvhzOYv-29">
          <mxGeometry x="-0.0427" y="2" relative="1" as="geometry">
            <mxPoint x="-17" y="14" as="offset" />
          </mxGeometry>
        </mxCell>
        <mxCell id="vxMmgjFSvx9ipGvhzOYv-22" value="RTC" style="rounded=1;whiteSpace=wrap;html=1;fillColor=#d5e8d4;strokeColor=#82b366;fontStyle=1;fontFamily=Helvetica;" vertex="1" parent="1">
          <mxGeometry x="20" y="210" width="100" height="50" as="geometry" />
        </mxCell>
        <mxCell id="vxMmgjFSvx9ipGvhzOYv-30" value="" style="edgeStyle=orthogonalEdgeStyle;rounded=0;orthogonalLoop=1;jettySize=auto;html=1;fontFamily=Helvetica;" edge="1" parent="1" source="vxMmgjFSvx9ipGvhzOYv-23" target="vxMmgjFSvx9ipGvhzOYv-12">
          <mxGeometry relative="1" as="geometry">
            <Array as="points">
              <mxPoint x="150" y="355" />
              <mxPoint x="150" y="310" />
            </Array>
          </mxGeometry>
        </mxCell>
        <mxCell id="vxMmgjFSvx9ipGvhzOYv-36" value="&lt;div style=&quot;font-size: 12px;&quot;&gt;SPI&lt;/div&gt;" style="edgeLabel;html=1;align=center;verticalAlign=middle;resizable=0;points=[];fontSize=12;fontFamily=Helvetica;" vertex="1" connectable="0" parent="vxMmgjFSvx9ipGvhzOYv-30">
          <mxGeometry x="-0.1852" relative="1" as="geometry">
            <mxPoint x="-14" y="-24" as="offset" />
          </mxGeometry>
        </mxCell>
        <mxCell id="vxMmgjFSvx9ipGvhzOYv-23" value="SD Card" style="rounded=1;whiteSpace=wrap;html=1;fillColor=#d5e8d4;strokeColor=#82b366;fontStyle=1;fontFamily=Helvetica;" vertex="1" parent="1">
          <mxGeometry x="20" y="330" width="100" height="50" as="geometry" />
        </mxCell>
        <mxCell id="vxMmgjFSvx9ipGvhzOYv-27" value="" style="edgeStyle=orthogonalEdgeStyle;rounded=0;orthogonalLoop=1;jettySize=auto;html=1;startArrow=classic;startFill=1;fontFamily=Helvetica;" edge="1" parent="1" source="vxMmgjFSvx9ipGvhzOYv-24" target="vxMmgjFSvx9ipGvhzOYv-3">
          <mxGeometry relative="1" as="geometry" />
        </mxCell>
        <mxCell id="vxMmgjFSvx9ipGvhzOYv-28" value="UART" style="edgeLabel;html=1;align=center;verticalAlign=middle;resizable=0;points=[];fontSize=12;fontFamily=Helvetica;" vertex="1" connectable="0" parent="vxMmgjFSvx9ipGvhzOYv-27">
          <mxGeometry x="0.1141" y="1" relative="1" as="geometry">
            <mxPoint x="3" y="-11" as="offset" />
          </mxGeometry>
        </mxCell>
        <mxCell id="vxMmgjFSvx9ipGvhzOYv-24" value="&lt;div&gt;&lt;b&gt;GPS Module&lt;/b&gt;&lt;/div&gt;&lt;div&gt;&lt;b&gt;MAX M10S&lt;br&gt;&lt;/b&gt;&lt;/div&gt;" style="rounded=1;whiteSpace=wrap;html=1;fillColor=#d5e8d4;strokeColor=#82b366;fontFamily=Helvetica;" vertex="1" parent="1">
          <mxGeometry x="640" y="320" width="100" height="50" as="geometry" />
        </mxCell>
        <mxCell id="vxMmgjFSvx9ipGvhzOYv-25" style="edgeStyle=orthogonalEdgeStyle;rounded=0;orthogonalLoop=1;jettySize=auto;html=1;exitX=1;exitY=0.5;exitDx=0;exitDy=0;startArrow=classic;startFill=1;fontFamily=Helvetica;" edge="1" parent="1" source="vxMmgjFSvx9ipGvhzOYv-12" target="vxMmgjFSvx9ipGvhzOYv-3">
          <mxGeometry relative="1" as="geometry" />
        </mxCell>
        <mxCell id="vxMmgjFSvx9ipGvhzOYv-26" value="UART" style="edgeLabel;html=1;align=center;verticalAlign=middle;resizable=0;points=[];fontSize=12;fontFamily=Helvetica;" vertex="1" connectable="0" parent="vxMmgjFSvx9ipGvhzOYv-25">
          <mxGeometry x="-0.0692" y="1" relative="1" as="geometry">
            <mxPoint y="6" as="offset" />
          </mxGeometry>
        </mxCell>
        <mxCell id="vxMmgjFSvx9ipGvhzOYv-33" value="" style="edgeStyle=orthogonalEdgeStyle;rounded=0;orthogonalLoop=1;jettySize=auto;html=1;entryX=0.5;entryY=1;entryDx=0;entryDy=0;startArrow=classic;startFill=1;fontFamily=Helvetica;" edge="1" parent="1" source="vxMmgjFSvx9ipGvhzOYv-31" target="vxMmgjFSvx9ipGvhzOYv-12">
          <mxGeometry relative="1" as="geometry">
            <Array as="points">
              <mxPoint x="175" y="430" />
              <mxPoint x="245" y="430" />
            </Array>
          </mxGeometry>
        </mxCell>
        <mxCell id="vxMmgjFSvx9ipGvhzOYv-37" value="&lt;div style=&quot;font-size: 12px;&quot;&gt;SPI&lt;/div&gt;" style="edgeLabel;html=1;align=center;verticalAlign=middle;resizable=0;points=[];fontSize=12;fontFamily=Helvetica;" vertex="1" connectable="0" parent="vxMmgjFSvx9ipGvhzOYv-33">
          <mxGeometry x="0.6662" y="-2" relative="1" as="geometry">
            <mxPoint x="-37" y="55" as="offset" />
          </mxGeometry>
        </mxCell>
        <mxCell id="vxMmgjFSvx9ipGvhzOYv-31" value="&lt;div&gt;CAN Controller&lt;/div&gt;&lt;div&gt;&lt;br&gt;&lt;/div&gt;&lt;div&gt;MCP2515&lt;br&gt;&lt;/div&gt;" style="rounded=1;whiteSpace=wrap;html=1;align=center;arcSize=21;fillColor=#d5e8d4;strokeColor=#82b366;fontStyle=1;fontFamily=Helvetica;" vertex="1" parent="1">
          <mxGeometry x="106.25" y="480" width="137.5" height="70" as="geometry" />
        </mxCell>
        <mxCell id="vxMmgjFSvx9ipGvhzOYv-34" value="" style="edgeStyle=orthogonalEdgeStyle;rounded=0;orthogonalLoop=1;jettySize=auto;html=1;fontFamily=Helvetica;" edge="1" parent="1" source="vxMmgjFSvx9ipGvhzOYv-32" target="vxMmgjFSvx9ipGvhzOYv-3">
          <mxGeometry relative="1" as="geometry" />
        </mxCell>
        <mxCell id="vxMmgjFSvx9ipGvhzOYv-38" value="SPI" style="edgeLabel;html=1;align=center;verticalAlign=middle;resizable=0;points=[];fontSize=12;fontFamily=Helvetica;" vertex="1" connectable="0" parent="vxMmgjFSvx9ipGvhzOYv-34">
          <mxGeometry x="0.1552" y="-2" relative="1" as="geometry">
            <mxPoint x="10" y="-7" as="offset" />
          </mxGeometry>
        </mxCell>
        <mxCell id="vxMmgjFSvx9ipGvhzOYv-32" value="&lt;div&gt;CAN Controller&lt;/div&gt;&lt;div&gt;&lt;br&gt;&lt;/div&gt;&lt;div&gt;MCP2515&lt;br&gt;&lt;/div&gt;" style="rounded=1;whiteSpace=wrap;html=1;align=center;arcSize=21;fillColor=#d5e8d4;strokeColor=#82b366;fontStyle=1;fontFamily=Helvetica;" vertex="1" parent="1">
          <mxGeometry x="519.25" y="480" width="137.5" height="70" as="geometry" />
        </mxCell>
        <mxCell id="vxMmgjFSvx9ipGvhzOYv-41" value="" style="group" vertex="1" connectable="0" parent="1">
          <mxGeometry y="608" width="760" height="31" as="geometry" />
        </mxCell>
        <mxCell id="vxMmgjFSvx9ipGvhzOYv-39" value="" style="rounded=0;whiteSpace=wrap;html=1;strokeWidth=3;fillColor=#c0c0c0;container=1;" vertex="1" parent="vxMmgjFSvx9ipGvhzOYv-41">
          <mxGeometry y="21" width="760" height="10" as="geometry" />
        </mxCell>
        <mxCell id="vxMmgjFSvx9ipGvhzOYv-40" value="&lt;div align=&quot;left&quot;&gt;&lt;b&gt;CANBUS&lt;/b&gt;&lt;/div&gt;" style="whiteSpace=wrap;html=1;align=left;strokeColor=none;" vertex="1" parent="vxMmgjFSvx9ipGvhzOYv-41">
          <mxGeometry width="120" height="19" as="geometry" />
        </mxCell>
        <mxCell id="vxMmgjFSvx9ipGvhzOYv-42" value="" style="endArrow=classic;startArrow=classic;html=1;rounded=0;entryX=0.5;entryY=1;entryDx=0;entryDy=0;" edge="1" parent="1" target="vxMmgjFSvx9ipGvhzOYv-31">
          <mxGeometry width="50" height="50" relative="1" as="geometry">
            <mxPoint x="175" y="630" as="sourcePoint" />
            <mxPoint x="370" y="490" as="targetPoint" />
          </mxGeometry>
        </mxCell>
        <mxCell id="vxMmgjFSvx9ipGvhzOYv-43" value="" style="endArrow=classic;startArrow=classic;html=1;rounded=0;entryX=0.5;entryY=1;entryDx=0;entryDy=0;" edge="1" parent="1">
          <mxGeometry width="50" height="50" relative="1" as="geometry">
            <mxPoint x="587.64" y="630" as="sourcePoint" />
            <mxPoint x="587.64" y="550" as="targetPoint" />
          </mxGeometry>
        </mxCell>
        <mxCell id="vxMmgjFSvx9ipGvhzOYv-44" value="Inverter" style="rounded=1;whiteSpace=wrap;html=1;fillColor=#dae8fc;strokeColor=#6c8ebf;fontStyle=1;fontFamily=Helvetica;" vertex="1" parent="1">
          <mxGeometry x="5" y="690" width="100" height="50" as="geometry" />
        </mxCell>
        <mxCell id="vxMmgjFSvx9ipGvhzOYv-45" value="BMS" style="rounded=1;whiteSpace=wrap;html=1;fillColor=#dae8fc;strokeColor=#6c8ebf;fontStyle=1;fontFamily=Helvetica;" vertex="1" parent="1">
          <mxGeometry x="135" y="690" width="100" height="50" as="geometry" />
        </mxCell>
        <mxCell id="vxMmgjFSvx9ipGvhzOYv-46" value="Sensor" style="rounded=1;whiteSpace=wrap;html=1;fillColor=#dae8fc;strokeColor=#6c8ebf;fontStyle=1;fontFamily=Helvetica;" vertex="1" parent="1">
          <mxGeometry x="265" y="690" width="100" height="50" as="geometry" />
        </mxCell>
        <mxCell id="vxMmgjFSvx9ipGvhzOYv-47" value="Sensor" style="rounded=1;whiteSpace=wrap;html=1;fillColor=#dae8fc;strokeColor=#6c8ebf;fontStyle=1;fontFamily=Helvetica;" vertex="1" parent="1">
          <mxGeometry x="395" y="690" width="100" height="50" as="geometry" />
        </mxCell>
        <mxCell id="vxMmgjFSvx9ipGvhzOYv-48" value="Sensor" style="rounded=1;whiteSpace=wrap;html=1;fillColor=#dae8fc;strokeColor=#6c8ebf;fontStyle=1;fontFamily=Helvetica;" vertex="1" parent="1">
          <mxGeometry x="524.25" y="690" width="100" height="50" as="geometry" />
        </mxCell>
        <mxCell id="vxMmgjFSvx9ipGvhzOYv-49" value="Sensor" style="rounded=1;whiteSpace=wrap;html=1;fillColor=#dae8fc;strokeColor=#6c8ebf;fontStyle=1;fontFamily=Helvetica;" vertex="1" parent="1">
          <mxGeometry x="655" y="690" width="100" height="50" as="geometry" />
        </mxCell>
        <mxCell id="vxMmgjFSvx9ipGvhzOYv-51" value="" style="endArrow=classic;html=1;rounded=0;exitX=0.5;exitY=0;exitDx=0;exitDy=0;" edge="1" parent="1" source="vxMmgjFSvx9ipGvhzOYv-44">
          <mxGeometry width="50" height="50" relative="1" as="geometry">
            <mxPoint x="310" y="630" as="sourcePoint" />
            <mxPoint x="55" y="640" as="targetPoint" />
          </mxGeometry>
        </mxCell>
        <mxCell id="vxMmgjFSvx9ipGvhzOYv-52" value="" style="endArrow=classic;html=1;rounded=0;exitX=0.5;exitY=0;exitDx=0;exitDy=0;" edge="1" parent="1">
          <mxGeometry width="50" height="50" relative="1" as="geometry">
            <mxPoint x="184.69" y="690" as="sourcePoint" />
            <mxPoint x="184.69" y="640" as="targetPoint" />
          </mxGeometry>
        </mxCell>
        <mxCell id="vxMmgjFSvx9ipGvhzOYv-53" value="" style="endArrow=classic;html=1;rounded=0;exitX=0.5;exitY=0;exitDx=0;exitDy=0;" edge="1" parent="1">
          <mxGeometry width="50" height="50" relative="1" as="geometry">
            <mxPoint x="314.69" y="689" as="sourcePoint" />
            <mxPoint x="314.69" y="639" as="targetPoint" />
          </mxGeometry>
        </mxCell>
        <mxCell id="vxMmgjFSvx9ipGvhzOYv-54" value="" style="endArrow=classic;html=1;rounded=0;exitX=0.5;exitY=0;exitDx=0;exitDy=0;" edge="1" parent="1">
          <mxGeometry width="50" height="50" relative="1" as="geometry">
            <mxPoint x="444.69" y="689" as="sourcePoint" />
            <mxPoint x="444.69" y="639" as="targetPoint" />
          </mxGeometry>
        </mxCell>
        <mxCell id="vxMmgjFSvx9ipGvhzOYv-56" value="" style="endArrow=classic;html=1;rounded=0;exitX=0.5;exitY=0;exitDx=0;exitDy=0;" edge="1" parent="1">
          <mxGeometry width="50" height="50" relative="1" as="geometry">
            <mxPoint x="573.94" y="689" as="sourcePoint" />
            <mxPoint x="573.94" y="639" as="targetPoint" />
          </mxGeometry>
        </mxCell>
        <mxCell id="vxMmgjFSvx9ipGvhzOYv-57" value="" style="endArrow=classic;html=1;rounded=0;exitX=0.5;exitY=0;exitDx=0;exitDy=0;" edge="1" parent="1">
          <mxGeometry width="50" height="50" relative="1" as="geometry">
            <mxPoint x="710" y="690" as="sourcePoint" />
            <mxPoint x="710" y="640" as="targetPoint" />
          </mxGeometry>
        </mxCell>
        <mxCell id="vxMmgjFSvx9ipGvhzOYv-58" value="&lt;div&gt;&lt;b&gt;Recorder Device&lt;/b&gt;&lt;/div&gt;" style="whiteSpace=wrap;html=1;align=left;strokeColor=none;" vertex="1" parent="1">
          <mxGeometry y="138" width="120" height="19" as="geometry" />
        </mxCell>
        <mxCell id="vxMmgjFSvx9ipGvhzOYv-59" value="&lt;b&gt;Transmitter Device&lt;/b&gt;" style="whiteSpace=wrap;html=1;align=left;strokeColor=none;" vertex="1" parent="1">
          <mxGeometry x="413" y="138" width="120" height="19" as="geometry" />
        </mxCell>
      </root>
    </mxGraphModel>
  </diagram>
</mxfile>
